<svg xmlns="http://www.w3.org/2000/svg" shape-rendering="geometricPrecision" text-rendering="geometricPrecision" image-rendering="optimizeQuality" fill-rule="evenodd" clip-rule="evenodd" viewBox="0 0 512 512"><path d="M105 0h302c57.928.154 104.845 47.072 105 104.995V407c-.155 57.925-47.072 104.844-104.996 104.998L105 512C47.074 511.844.156 464.925.002 407.003L0 105C.156 47.072 47.074.154 104.997 0H105zm313.445 285.529c-1.362 24.346-21.681 43.283-46.061 42.946H261.671c-5.071-.052-9.166-4.165-9.192-9.231v-119.21a10.154 10.154 0 016.115-9.705s10.184-7.063 31.633-7.063a72.57 72.57 0 0137.226 10.228 73.661 73.661 0 0134.66 48.005 42.715 42.715 0 0111.744-1.599 44.326 44.326 0 0131.982 13.35 44.315 44.315 0 0112.611 32.28l-.005-.001zm-179.784-77.958c3.339 40.433 5.766 77.311 0 117.61a3.594 3.594 0 01-3.571 3.201 3.598 3.598 0 01-3.577-3.201c-5.374-39.958-3.033-77.526 0-117.61a3.581 3.581 0 011.668-3.437 3.614 3.614 0 013.82 0 3.586 3.586 0 011.66 3.437zM216.26 325.222a3.766 3.766 0 01-3.725 3.201 3.764 3.764 0 01-3.729-3.201 449.686 449.686 0 010-103.778 3.774 3.774 0 013.75-3.37 3.774 3.774 0 013.748 3.37 403.73 403.73 0 01-.047 103.778h.003zm-22.451-107.289c3.637 37.049 5.292 70.241-.039 107.204a3.6 3.6 0 01-3.597 3.597 3.6 3.6 0 01-3.595-3.597c-5.159-36.487-3.427-70.632 0-107.204a3.625 3.625 0 013.616-3.239 3.627 3.627 0 013.615 3.239zm-22.481 107.336a3.693 3.693 0 01-3.668 3.279 3.675 3.675 0 01-3.657-3.279 379.699 379.699 0 010-96.895 3.725 3.725 0 017.452 0 354.092 354.092 0 01-.132 96.895h.005zm-22.454-72.668c5.681 25.124 3.121 47.317-.212 72.924a3.516 3.516 0 01-3.471 2.963 3.515 3.515 0 01-3.465-2.963c-3.033-25.258-5.548-47.971-.217-72.932a3.688 3.688 0 013.683-3.683 3.685 3.685 0 013.685 3.688l-.003.003zm-22.401-3.817c5.203 25.742 3.51 47.535-.133 73.364-.43 3.816-6.97 3.856-7.319 0-3.295-25.438-4.854-47.885-.134-73.364a3.824 3.824 0 013.797-3.406 3.805 3.805 0 013.789 3.406zm-22.615 12.479c5.456 17.074 3.591 30.946-.217 48.447a3.552 3.552 0 01-3.532 3.16 3.564 3.564 0 01-3.539-3.16c-3.293-17.159-4.628-31.329-.298-48.447a3.804 3.804 0 013.789-3.406 3.802 3.802 0 013.789 3.406h.008z"/></svg>